# xmcd
#
# Track frame offsets: 
#        150
#        11757
#        35882
#        49072
#        69702
#        85910
#        97807
#        117477
#        136055
#        148052
#
# Disc length: 2224 seconds
#
# Revision: 0
# Processed by: cddbd v1.5.1PL0 Copyright (c) Steve Scherf et al.
# Submitted via: ExactAudioCopy v0.95a5
#
DISCID=8c08ae0a
DTITLE=Hank Williams Jr. - Strong Stuff
DYEAR=1983
DGENRE=Country
TTITLE0=Gonna Go Huntin' Tonight
TTITLE1=La Grange
TTITLE2=A Whole Lot Of Hank
TTITLE3=Made In The Shade
TTITLE4=Leave Them Boys Alone
TTITLE5=The Girl In The Front Row At Fort Worth
TTITLE6=The Homecoming Queen
TTITLE7=Blue Jean Blues
TTITLE8=Twodot Montana
TTITLE9=In The Arms Of Cocaine
EXTD=(c)1983 Warner Bros - CURB * 075992747523
EXTT0=
EXTT1=
EXTT2=
EXTT3=
EXTT4=
EXTT5=
EXTT6=
EXTT7=
EXTT8=
EXTT9=
PLAYORDER=
